<svg width="24" height="24" viewBox="0 0 24 24" fill="none" xmlns="http://www.w3.org/2000/svg">
<rect width="24" height="24" fill="#FCFCFF"/>
<path d="M11.5027 8.98532C8.17678 14.2329 7.99985 19.7611 10.504 21.5035C13.0081 23.246 17.6631 20.2417 20.9891 14.9941C24.3151 9.74648 24.9913 4.24115 22.4872 2.49869C19.983 0.756227 14.8287 3.73769 11.5027 8.98532Z" fill="#734CC6"/>
<path d="M12.5011 8.98541C15.8743 14.233 16.0396 19.7611 13.4999 21.5035C10.9602 23.246 6.3879 20.2417 3.01472 14.9941C-0.358464 9.74648 -0.982828 4.24124 1.55686 2.49877C4.09654 0.75631 9.12795 3.73778 12.5011 8.98541Z" fill="#734CC6"/>
<path d="M13.5234 21.1605C15.9633 19.4867 15.3141 14.0432 12.0735 9.00221C12.0493 8.96452 12.025 8.92696 12.0006 8.88953C11.9761 8.92708 11.9518 8.96477 11.9275 9.00258C8.68683 14.0436 8.0377 19.487 10.4776 21.1609C10.9198 21.4643 11.4331 21.623 11.9965 21.6495C12.5631 21.6241 13.0791 21.4653 13.5234 21.1605Z" fill="#734CC6" stroke="#FCFCFF" stroke-width="0.7"/>
<ellipse cx="12" cy="4" rx="1" ry="2" fill="#734CC6"/>
</svg>
