<svg width="25" height="21" viewBox="0 0 25 21" fill="none" xmlns="http://www.w3.org/2000/svg">
<path d="M12.489 7.84956C9.18011 13.0896 8.51731 18.748 11.0086 20.4879C13.4999 22.2279 18.2019 19.3905 21.5108 14.1504C24.8197 8.91041 25.4825 3.25203 22.9912 1.51209C20.4999 -0.227855 15.7979 2.60953 12.489 7.84956Z" fill="#734CC6"/>
<path d="M12.6812 7.84956C16.0371 13.0896 16.7093 18.748 14.1826 20.4879C11.656 22.2279 6.88723 19.3905 3.53134 14.1504C0.175445 8.91041 -0.496775 3.25203 2.02989 1.51209C4.55655 -0.227855 9.3253 2.60953 12.6812 7.84956Z" fill="#734CC6"/>
<path fill-rule="evenodd" clip-rule="evenodd" d="M14.183 20.3134C16.7097 18.6473 16.0374 13.2289 12.6816 8.21117C12.6567 8.17397 12.6317 8.1369 12.6067 8.09995C12.5817 8.1369 12.5567 8.17397 12.5318 8.21117C9.17593 13.2289 8.50371 18.6473 11.0304 20.3134C11.4892 20.616 12.0219 20.774 12.6067 20.8C13.1915 20.774 13.7242 20.616 14.183 20.3134Z" fill="#734CC6"/>
<path d="M12.6816 8.21117L12.8478 8.09998V8.09998L12.6816 8.21117ZM14.183 20.3134L14.0729 20.1465L14.183 20.3134ZM12.6067 8.09995L12.7723 7.98777L12.6067 7.7434L12.4411 7.98777L12.6067 8.09995ZM12.5318 8.21117L12.3656 8.09998V8.09998L12.5318 8.21117ZM11.0304 20.3134L11.1405 20.1465H11.1405L11.0304 20.3134ZM12.6067 20.8L12.5978 20.9998L12.6067 21.0002L12.6156 20.9998L12.6067 20.8ZM12.5153 8.32235C14.1797 10.811 15.1727 13.3908 15.4398 15.5438C15.7085 17.7097 15.2387 19.3777 14.0729 20.1465L14.2931 20.4804C15.6539 19.583 16.1114 17.7087 15.8367 15.4945C15.5604 13.2673 14.5393 10.6291 12.8478 8.09998L12.5153 8.32235ZM12.4411 8.21214C12.4659 8.24875 12.4907 8.28549 12.5153 8.32235L12.8478 8.09998C12.8227 8.06245 12.7975 8.02504 12.7723 7.98777L12.4411 8.21214ZM12.4411 7.98777C12.4159 8.02504 12.3907 8.06245 12.3656 8.09998L12.6981 8.32235C12.7227 8.28549 12.7475 8.24875 12.7723 8.21214L12.4411 7.98777ZM12.3656 8.09998C10.6741 10.6291 9.65298 13.2673 9.37666 15.4945C9.10196 17.7087 9.55946 19.583 10.9203 20.4804L11.1405 20.1465C9.97463 19.3777 9.5049 17.7097 9.77362 15.5438C10.0407 13.3908 11.0337 10.811 12.6981 8.32235L12.3656 8.09998ZM10.9203 20.4804C11.4131 20.8053 11.9818 20.9724 12.5978 20.9998L12.6156 20.6002C12.062 20.5756 11.5653 20.4266 11.1405 20.1465L10.9203 20.4804ZM14.0729 20.1465C13.6481 20.4266 13.1514 20.5756 12.5978 20.6002L12.6156 20.9998C13.2316 20.9724 13.8003 20.8053 14.2931 20.4804L14.0729 20.1465Z" fill="#FCFCFF"/>
<ellipse cx="12.5002" cy="2" rx="1" ry="2" fill="#734CC6"/>
</svg>
