<svg width="24" height="21" viewBox="0 0 24 21" fill="none" xmlns="http://www.w3.org/2000/svg">
<path d="M11.5027 7.98532C8.17678 13.2329 7.99985 18.7611 10.504 20.5035C13.0081 22.246 17.6631 19.2417 20.9891 13.9941C24.3151 8.74648 24.9913 3.24115 22.4872 1.49869C19.983 -0.243773 14.8287 2.73769 11.5027 7.98532Z" fill="#734CC6"/>
<path d="M12.5011 7.98541C15.8743 13.233 16.0396 18.7611 13.4999 20.5035C10.9602 22.246 6.3879 19.2417 3.01472 13.9941C-0.358464 8.74648 -0.982828 3.24124 1.55686 1.49877C4.09654 -0.24369 9.12795 2.73778 12.5011 7.98541Z" fill="#734CC6"/>
<path d="M13.5234 20.1605C15.9633 18.4867 15.3141 13.0432 12.0735 8.00221C12.0493 7.96452 12.025 7.92696 12.0006 7.88953C11.9761 7.92708 11.9518 7.96477 11.9275 8.00258C8.68683 13.0436 8.0377 18.487 10.4776 20.1609C10.9198 20.4643 11.4331 20.623 11.9965 20.6495C12.5631 20.6241 13.0791 20.4653 13.5234 20.1605Z" fill="#734CC6" stroke="#FCFCFF" stroke-width="0.7"/>
<ellipse cx="12" cy="3" rx="1" ry="2" fill="#734CC6"/>
</svg>
