<svg width="12" height="12" viewBox="0 0 12 12" fill="none" xmlns="http://www.w3.org/2000/svg">
<g id="basil:trash-outline">
<path id="Vector" d="M5 1.125C4.90054 1.125 4.80516 1.16451 4.73484 1.23483C4.66451 1.30516 4.625 1.40054 4.625 1.5V1.875H2.5C2.40054 1.875 2.30516 1.91451 2.23483 1.98483C2.16451 2.05516 2.125 2.15054 2.125 2.25C2.125 2.34946 2.16451 2.44484 2.23483 2.51517C2.30516 2.58549 2.40054 2.625 2.5 2.625H9.5C9.59946 2.625 9.69484 2.58549 9.76517 2.51517C9.83549 2.44484 9.875 2.34946 9.875 2.25C9.875 2.15054 9.83549 2.05516 9.76517 1.98483C9.69484 1.91451 9.59946 1.875 9.5 1.875H7.375V1.5C7.375 1.40054 7.33549 1.30516 7.26516 1.23483C7.19484 1.16451 7.09946 1.125 7 1.125H5ZM5 5.325C5.09946 5.325 5.19484 5.36451 5.26516 5.43483C5.33549 5.50516 5.375 5.60054 5.375 5.7V9.2C5.375 9.29946 5.33549 9.39484 5.26516 9.46517C5.19484 9.53549 5.09946 9.575 5 9.575C4.90054 9.575 4.80516 9.53549 4.73484 9.46517C4.66451 9.39484 4.625 9.29946 4.625 9.2V5.7C4.625 5.60054 4.66451 5.50516 4.73484 5.43483C4.80516 5.36451 4.90054 5.325 5 5.325ZM7.375 5.7C7.375 5.60054 7.33549 5.50516 7.26516 5.43483C7.19484 5.36451 7.09946 5.325 7 5.325C6.90054 5.325 6.80516 5.36451 6.73484 5.43483C6.66451 5.50516 6.625 5.60054 6.625 5.7V9.2C6.625 9.29946 6.66451 9.39484 6.73484 9.46517C6.80516 9.53549 6.90054 9.575 7 9.575C7.09946 9.575 7.19484 9.53549 7.26516 9.46517C7.33549 9.39484 7.375 9.29946 7.375 9.2V5.7Z" fill="#EA4335"/>
<path id="Vector_2" fill-rule="evenodd" clip-rule="evenodd" d="M2.99554 3.9585C3.00576 3.86674 3.04946 3.78198 3.11829 3.72045C3.18711 3.65891 3.27622 3.62493 3.36854 3.625H8.63154C8.72386 3.62493 8.81297 3.65891 8.88179 3.72045C8.95062 3.78198 8.99432 3.86674 9.00454 3.9585L9.10454 4.8595C9.28604 6.492 9.28604 8.1395 9.10454 9.7725L9.09454 9.861C9.05975 10.1761 8.92089 10.4706 8.69992 10.6979C8.47896 10.9252 8.18852 11.0723 7.87454 11.116C6.63096 11.2904 5.36913 11.2904 4.12554 11.116C3.81157 11.0723 3.52112 10.9252 3.30016 10.6979C3.0792 10.4706 2.94033 10.1761 2.90554 9.861L2.89554 9.7725C2.71418 8.13985 2.71418 6.49215 2.89554 4.8595L2.99554 3.9585ZM3.70404 4.375L3.64104 4.942C3.46579 6.51965 3.46579 8.11185 3.64104 9.6895L3.65104 9.778C3.66734 9.92752 3.73311 10.0673 3.83791 10.1752C3.94272 10.2831 4.08055 10.3529 4.22954 10.3735C5.40454 10.538 6.59604 10.538 7.77054 10.3735C7.91946 10.3529 8.05723 10.2832 8.16203 10.1754C8.26683 10.0676 8.33264 9.92793 8.34904 9.7785L8.35904 9.6895C8.53404 8.112 8.53404 6.5195 8.35904 4.942L8.29604 4.375H3.70404Z" fill="#EA4335"/>
</g>
</svg>
